<svg xmlns="http://www.w3.org/2000/svg" xmlns:xlink="http://www.w3.org/1999/xlink" xmlns:lucid="lucid" width="1422" height="747"><g transform="translate(1881 1081)" lucid:page-tab-id="0_0"><path d="M-780-580h300v225h-300z" stroke="#333" stroke-width="2" fill="#fff"/><path d="M-780-518.4h300" stroke="#333" stroke-width="2" fill="none"/><use xlink:href="#a" transform="matrix(1,0,0,1,-772,-572) translate(96.99444444444444 16.2)"/><use xlink:href="#b" transform="matrix(1,0,0,1,-772,-572) translate(62.7 38.6)"/><use xlink:href="#c" transform="matrix(1,0,0,1,-768,-510.4) translate(0 56)"/><use xlink:href="#d" transform="matrix(1,0,0,1,-768,-510.4) translate(15.5 56)"/><use xlink:href="#e" transform="matrix(1,0,0,1,-768,-510.4) translate(53.45 56)"/><use xlink:href="#f" transform="matrix(1,0,0,1,-768,-510.4) translate(210.10000000000002 56)"/><use xlink:href="#c" transform="matrix(1,0,0,1,-768,-510.4) translate(0 77.60000000000001)"/><use xlink:href="#d" transform="matrix(1,0,0,1,-768,-510.4) translate(15.5 77.60000000000001)"/><use xlink:href="#g" transform="matrix(1,0,0,1,-768,-510.4) translate(53.45 77.60000000000001)"/><use xlink:href="#c" transform="matrix(1,0,0,1,-768,-510.4) translate(0 99.20000000000002)"/><use xlink:href="#d" transform="matrix(1,0,0,1,-768,-510.4) translate(15.5 99.20000000000002)"/><use xlink:href="#h" transform="matrix(1,0,0,1,-768,-510.4) translate(53.45 99.20000000000002)"/><path d="M-1320-1060h300v220h-300z" stroke="#333" stroke-width="2" fill="#fff"/><path d="M-1320-1022.4h300" stroke="#333" stroke-width="2" fill="none"/><use xlink:href="#i" transform="matrix(1,0,0,1,-1312,-1052) translate(112.6 14.6)"/><use xlink:href="#j" transform="matrix(1,0,0,1,-1308,-1014.4) translate(0 65.5)"/><use xlink:href="#k" transform="matrix(1,0,0,1,-1308,-1014.4) translate(10.95 65.5)"/><use xlink:href="#l" transform="matrix(1,0,0,1,-1308,-1014.4) translate(62.849999999999994 65.5)"/><use xlink:href="#j" transform="matrix(1,0,0,1,-1308,-1014.4) translate(0 87.10000000000001)"/><use xlink:href="#k" transform="matrix(1,0,0,1,-1308,-1014.4) translate(10.95 87.10000000000001)"/><use xlink:href="#m" transform="matrix(1,0,0,1,-1308,-1014.4) translate(62.849999999999994 87.10000000000001)"/><use xlink:href="#n" transform="matrix(1,0,0,1,-1308,-1014.4) translate(0 108.70000000000002)"/><path d="M-1860-580h300v225h-300z" stroke="#333" stroke-width="2" fill="#fff"/><path d="M-1860-518.4h300" stroke="#333" stroke-width="2" fill="none"/><use xlink:href="#a" transform="matrix(1,0,0,1,-1852,-572) translate(96.99444444444444 16.2)"/><use xlink:href="#o" transform="matrix(1,0,0,1,-1852,-572) translate(60.224999999999994 38.6)"/><use xlink:href="#c" transform="matrix(1,0,0,1,-1848,-510.4) translate(0 45.19999999999999)"/><use xlink:href="#d" transform="matrix(1,0,0,1,-1848,-510.4) translate(15.5 45.19999999999999)"/><use xlink:href="#p" transform="matrix(1,0,0,1,-1848,-510.4) translate(53.45 45.19999999999999)"/><use xlink:href="#c" transform="matrix(1,0,0,1,-1848,-510.4) translate(0 66.8)"/><use xlink:href="#d" transform="matrix(1,0,0,1,-1848,-510.4) translate(15.5 66.8)"/><use xlink:href="#q" transform="matrix(1,0,0,1,-1848,-510.4) translate(53.45 66.8)"/><use xlink:href="#c" transform="matrix(1,0,0,1,-1848,-510.4) translate(0 88.4)"/><use xlink:href="#d" transform="matrix(1,0,0,1,-1848,-510.4) translate(15.5 88.4)"/><use xlink:href="#r" transform="matrix(1,0,0,1,-1848,-510.4) translate(53.45 88.4)"/><use xlink:href="#s" transform="matrix(1,0,0,1,-1848,-510.4) translate(0 110)"/><path d="M-1320-580h300v225h-300z" stroke="#333" stroke-width="2" fill="#fff"/><path d="M-1320-518.4h300" stroke="#333" stroke-width="2" fill="none"/><use xlink:href="#a" transform="matrix(1,0,0,1,-1312,-572) translate(96.99444444444444 16.2)"/><use xlink:href="#t" transform="matrix(1,0,0,1,-1312,-572) translate(58.900000000000006 38.6)"/><g><use xlink:href="#c" transform="matrix(1,0,0,1,-1308,-510.4) translate(0 56)"/><use xlink:href="#d" transform="matrix(1,0,0,1,-1308,-510.4) translate(15.5 56)"/><use xlink:href="#u" transform="matrix(1,0,0,1,-1308,-510.4) translate(53.45 56)"/><use xlink:href="#v" transform="matrix(1,0,0,1,-1308,-510.4) translate(145.15 56)"/><use xlink:href="#c" transform="matrix(1,0,0,1,-1308,-510.4) translate(0 77.60000000000001)"/><use xlink:href="#d" transform="matrix(1,0,0,1,-1308,-510.4) translate(15.5 77.60000000000001)"/><use xlink:href="#w" transform="matrix(1,0,0,1,-1308,-510.4) translate(53.45 77.60000000000001)"/><use xlink:href="#c" transform="matrix(1,0,0,1,-1308,-510.4) translate(0 99.20000000000002)"/><use xlink:href="#d" transform="matrix(1,0,0,1,-1308,-510.4) translate(15.5 99.20000000000002)"/><use xlink:href="#x" transform="matrix(1,0,0,1,-1308,-510.4) translate(53.45 99.20000000000002)"/></g><path d="M-1170-838v79.5" stroke="#5e5e5e" stroke-width="2" fill="none"/><path d="M-1169.03-837.97h-1.94V-839h1.94z" stroke="#5e5e5e" stroke-width=".05" fill="#5e5e5e"/><path d="M-1170-743.24l-4.63-14.26h9.27z" stroke="#5e5e5e" stroke-width="2" fill="#5e5e5e"/><path d="M-1170-679v79.5" stroke="#5e5e5e" stroke-width="2" fill="none"/><path d="M-1169.03-678.97h-1.94V-680h1.94z" stroke="#5e5e5e" stroke-width=".05" fill="#5e5e5e"/><path d="M-1170-584.24l-4.63-14.26h9.27z" stroke="#5e5e5e" stroke-width="2" fill="#5e5e5e"/><path d="M-1290-734a6 6 0 0 1 6-6h228a6 6 0 0 1 6 6v48a6 6 0 0 1-6 6h-228a6 6 0 0 1-6-6z" stroke="#000" stroke-opacity="0" stroke-width="3" fill="#fff" fill-opacity="0"/><g><use xlink:href="#y" transform="matrix(1,0,0,1,-1285,-735) translate(57.0679012345679 30.27777777777778)"/></g><path d="M-1710-679v79.5" stroke="#5e5e5e" stroke-width="2" fill="none"/><path d="M-1709.03-678.97h-1.94V-680h1.94z" stroke="#5e5e5e" stroke-width=".05" fill="#5e5e5e"/><path d="M-1710-584.24l-4.63-14.26h9.27z" stroke="#5e5e5e" stroke-width="2" fill="#5e5e5e"/><path d="M-1322-950h-382a6 6 0 0 0-6 6v185.5" stroke="#5e5e5e" stroke-width="2" fill="none"/><path d="M-1321-949.02h-1.03V-951h1.03z" stroke="#5e5e5e" stroke-width=".05" fill="#5e5e5e"/><path d="M-1710-743.24l-4.63-14.26h9.27z" stroke="#5e5e5e" stroke-width="2" fill="#5e5e5e"/><path d="M-1018-950h382a6 6 0 0 1 6 6v185.5" stroke="#5e5e5e" stroke-width="2" fill="none"/><path d="M-1017.97-949.02h-1.03V-951h1.03z" stroke="#5e5e5e" stroke-width=".05" fill="#5e5e5e"/><path d="M-630-743.24l-4.63-14.26h9.26z" stroke="#5e5e5e" stroke-width="2" fill="#5e5e5e"/><path d="M-630-679v79.5" stroke="#5e5e5e" stroke-width="2" fill="none"/><path d="M-629.02-678.97H-631V-680h1.96z" stroke="#5e5e5e" stroke-width=".05" fill="#5e5e5e"/><path d="M-630-584.24l-4.63-14.26h9.26z" stroke="#5e5e5e" stroke-width="2" fill="#5e5e5e"/><path d="M-750-734a6 6 0 0 1 6-6h228a6 6 0 0 1 6 6v48a6 6 0 0 1-6 6h-228a6 6 0 0 1-6-6z" stroke="#000" stroke-opacity="0" stroke-width="3" fill="#fff" fill-opacity="0"/><g><use xlink:href="#y" transform="matrix(1,0,0,1,-745,-735) translate(57.0679012345679 30.27777777777778)"/></g><path d="M-1830-734a6 6 0 0 1 6-6h228a6 6 0 0 1 6 6v48a6 6 0 0 1-6 6h-228a6 6 0 0 1-6-6z" stroke="#000" stroke-opacity="0" stroke-width="3" fill="#fff" fill-opacity="0"/><g><use xlink:href="#y" transform="matrix(1,0,0,1,-1825,-735) translate(57.0679012345679 30.27777777777778)"/></g><defs><path fill="#333" d="M156-25L96-89v-11l60-65h29v5l-59 66 60 64v5h-30zm-82 0L15-89v-11l59-65h29v5L44-94l59 64v5H74" id="z"/><path fill="#333" d="M24-231v-30h32v30H24zM24 0v-190h32V0H24" id="A"/><path fill="#333" d="M117-194c89-4 53 116 60 194h-32v-121c0-31-8-49-39-48C34-167 62-67 57 0H25l-1-190h30c1 10-1 24 2 32 11-22 29-35 61-36" id="B"/><path fill="#333" d="M59-47c-2 24 18 29 38 22v24C64 9 27 4 27-40v-127H5v-23h24l9-43h21v43h35v23H59v120" id="C"/><path fill="#333" d="M100-194c63 0 86 42 84 106H49c0 40 14 67 53 68 26 1 43-12 49-29l28 8c-11 28-37 45-77 45C44 4 14-33 15-96c1-61 26-98 85-98zm52 81c6-60-76-77-97-28-3 7-6 17-6 28h103" id="D"/><path fill="#333" d="M114-163C36-179 61-72 57 0H25l-1-190h30c1 12-1 29 2 39 6-27 23-49 58-41v29" id="E"/><path fill="#333" d="M101-234c-31-9-42 10-38 44h38v23H63V0H32v-167H5v-23h27c-7-52 17-82 69-68v24" id="F"/><path fill="#333" d="M141-36C126-15 110 5 73 4 37 3 15-17 15-53c-1-64 63-63 125-63 3-35-9-54-41-54-24 1-41 7-42 31l-33-3c5-37 33-52 76-52 45 0 72 20 72 64v82c-1 20 7 32 28 27v20c-31 9-61-2-59-35zM48-53c0 20 12 33 32 33 41-3 63-29 60-74-43 2-92-5-92 41" id="G"/><path fill="#333" d="M96-169c-40 0-48 33-48 73s9 75 48 75c24 0 41-14 43-38l32 2c-6 37-31 61-74 61-59 0-76-41-82-99-10-93 101-131 147-64 4 7 5 14 7 22l-32 3c-4-21-16-35-41-35" id="H"/><path fill="#333" d="M126-25H97v-5l59-64-59-66v-5h29l60 65v11zm-82 0H15v-5l59-64-59-66v-5h29l59 65v11" id="I"/><g id="a"><use transform="matrix(0.05555555555555555,0,0,0.05555555555555555,0,0)" xlink:href="#z"/><use transform="matrix(0.05,0,0,0.05,11.11111111111111,0)" xlink:href="#A"/><use transform="matrix(0.05,0,0,0.05,15.06111111111111,0)" xlink:href="#B"/><use transform="matrix(0.05,0,0,0.05,25.06111111111111,0)" xlink:href="#C"/><use transform="matrix(0.05,0,0,0.05,30.06111111111111,0)" xlink:href="#D"/><use transform="matrix(0.05,0,0,0.05,40.06111111111111,0)" xlink:href="#E"/><use transform="matrix(0.05,0,0,0.05,46.01111111111111,0)" xlink:href="#F"/><use transform="matrix(0.05,0,0,0.05,51.01111111111111,0)" xlink:href="#G"/><use transform="matrix(0.05,0,0,0.05,61.01111111111111,0)" xlink:href="#H"/><use transform="matrix(0.05,0,0,0.05,70.01111111111112,0)" xlink:href="#D"/><use transform="matrix(0.05,0,0,0.05,80.01111111111112,0)" xlink:href="#I"/></g><path fill="#333" d="M175 0L67-191c6 58 2 128 3 191H24v-248h59L193-55c-6-58-2-129-3-193h46V0h-61" id="J"/><path fill="#333" d="M133-34C117-15 103 5 69 4 32 3 11-16 11-54c-1-60 55-63 116-61 1-26-3-47-28-47-18 1-26 9-28 27l-52-2c7-38 36-58 82-57s74 22 75 68l1 82c-1 14 12 18 25 15v27c-30 8-71 5-69-32zm-48 3c29 0 43-24 42-57-32 0-66-3-65 30 0 17 8 27 23 27" id="K"/><path fill="#333" d="M128 0H69L1-190h53L99-40l48-150h52" id="L"/><path fill="#333" d="M185-48c-13 30-37 53-82 52C43 2 14-33 14-96s30-98 90-98c62 0 83 45 84 108H66c0 31 8 55 39 56 18 0 30-7 34-22zm-45-69c5-46-57-63-70-21-2 6-4 13-4 21h74" id="M"/><path fill="#333" d="M195-6C206 82 75 100 31 46c-4-6-6-13-8-21l49-6c3 16 16 24 34 25 40 0 42-37 40-79-11 22-30 35-61 35-53 0-70-43-70-97 0-56 18-96 73-97 30 0 46 14 59 34l2-30h47zm-90-29c32 0 41-27 41-63 0-35-9-62-40-62-32 0-39 29-40 63 0 36 9 62 39 62" id="N"/><path fill="#333" d="M88-194c31-1 46 15 58 34l-1-101h50l1 261h-48c-2-10 0-23-3-31C134-8 116 4 84 4 32 4 16-41 15-95c0-56 19-97 73-99zm17 164c33 0 40-30 41-66 1-37-9-64-41-64s-38 30-39 65c0 43 13 65 39 65" id="O"/><path fill="#333" d="M110-194c64 0 96 36 96 99 0 64-35 99-97 99-61 0-95-36-95-99 0-62 34-99 96-99zm-1 164c35 0 45-28 45-65 0-40-10-65-43-65-34 0-45 26-45 65 0 36 10 65 43 65" id="P"/><path fill="#333" d="M135-150c-39-12-60 13-60 57V0H25l-1-190h47c2 13-1 29 3 40 6-28 27-53 61-41v41" id="Q"/><path fill="#333" d="M24 0v-248h52V0H24" id="R"/><path fill="#333" d="M135-194c87-1 58 113 63 194h-50c-7-57 23-157-34-157-59 0-34 97-39 157H25l-1-190h47c2 12-1 28 3 38 12-26 28-41 61-42" id="S"/><path fill="#333" d="M115-3C79 11 28 4 28-45v-112H4v-33h27l15-45h31v45h36v33H77v99c-1 23 16 31 38 25v30" id="T"/><g id="b"><use transform="matrix(0.05,0,0,0.05,0,0)" xlink:href="#J"/><use transform="matrix(0.05,0,0,0.05,12.950000000000001,0)" xlink:href="#K"/><use transform="matrix(0.05,0,0,0.05,22.950000000000003,0)" xlink:href="#L"/><use transform="matrix(0.05,0,0,0.05,32.95,0)" xlink:href="#M"/><use transform="matrix(0.05,0,0,0.05,42.95,0)" xlink:href="#N"/><use transform="matrix(0.05,0,0,0.05,53.900000000000006,0)" xlink:href="#K"/><use transform="matrix(0.05,0,0,0.05,63.900000000000006,0)" xlink:href="#O"/><use transform="matrix(0.05,0,0,0.05,74.85000000000001,0)" xlink:href="#P"/><use transform="matrix(0.05,0,0,0.05,85.80000000000001,0)" xlink:href="#Q"/><use transform="matrix(0.05,0,0,0.05,92.80000000000001,0)" xlink:href="#R"/><use transform="matrix(0.05,0,0,0.05,97.80000000000001,0)" xlink:href="#S"/><use transform="matrix(0.05,0,0,0.05,108.75,0)" xlink:href="#T"/><use transform="matrix(0.05,0,0,0.05,114.7,0)" xlink:href="#M"/><use transform="matrix(0.05,0,0,0.05,124.7,0)" xlink:href="#Q"/><use transform="matrix(0.05,0,0,0.05,131.70000000000002,0)" xlink:href="#S"/><use transform="matrix(0.05,0,0,0.05,142.65,0)" xlink:href="#M"/><use transform="matrix(0.05,0,0,0.05,152.65,0)" xlink:href="#T"/></g><path fill="#333" d="M118-107v75H92v-75H18v-26h74v-75h26v75h74v26h-74" id="U"/><use transform="matrix(0.05,0,0,0.05,0,0)" xlink:href="#U" id="c"/><path fill="#333" d="M108 0H70L1-190h34L89-25l56-165h34" id="V"/><path fill="#333" d="M100-194c62-1 85 37 85 99 1 63-27 99-86 99S16-35 15-95c0-66 28-99 85-99zM99-20c44 1 53-31 53-75 0-43-8-75-51-75s-53 32-53 75 10 74 51 75" id="W"/><path fill="#333" d="M85-194c31 0 48 13 60 33l-1-100h32l1 261h-30c-2-10 0-23-3-31C134-8 116 4 85 4 32 4 16-35 15-94c0-66 23-100 70-100zm9 24c-40 0-46 34-46 75 0 40 6 74 45 74 42 0 51-32 51-76 0-42-9-74-50-73" id="X"/><g id="d"><use transform="matrix(0.05,0,0,0.05,0,0)" xlink:href="#V"/><use transform="matrix(0.05,0,0,0.05,9,0)" xlink:href="#W"/><use transform="matrix(0.05,0,0,0.05,19,0)" xlink:href="#A"/><use transform="matrix(0.05,0,0,0.05,22.95,0)" xlink:href="#X"/></g><path fill="#333" d="M141 0L90-78 38 0H4l68-98-65-92h35l48 74 47-74h35l-64 92 68 98h-35" id="Y"/><path fill="#333" d="M115-194c53 0 69 39 70 98 0 66-23 100-70 100C84 3 66-7 56-30L54 0H23l1-261h32v101c10-23 28-34 59-34zm-8 174c40 0 45-34 45-75 0-40-5-75-45-74-42 0-51 32-51 76 0 43 10 73 51 73" id="Z"/><path fill="#333" d="M30-248c87 1 191-15 191 75 0 78-77 80-158 76V0H30v-248zm33 125c57 0 124 11 124-50 0-59-68-47-124-48v98" id="aa"/><path fill="#333" d="M177-190C167-65 218 103 67 71c-23-6-38-20-44-43l32-5c15 47 100 32 89-28v-30C133-14 115 1 83 1 29 1 15-40 15-95c0-56 16-97 71-98 29-1 48 16 59 35 1-10 0-23 2-32h30zM94-22c36 0 50-32 50-73 0-42-14-75-50-75-39 0-46 34-46 75s6 73 46 73" id="ab"/><path fill="#333" d="M87 75C49 33 22-17 22-94c0-76 28-126 65-167h31c-38 41-64 92-64 168S80 34 118 75H87" id="ac"/><path fill="#333" d="M185-189c-5-48-123-54-124 2 14 75 158 14 163 119 3 78-121 87-175 55-17-10-28-26-33-46l33-7c5 56 141 63 141-1 0-78-155-14-162-118-5-82 145-84 179-34 5 7 8 16 11 25" id="ad"/><g id="e"><use transform="matrix(0.05,0,0,0.05,0,0)" xlink:href="#D"/><use transform="matrix(0.05,0,0,0.05,10,0)" xlink:href="#Y"/><use transform="matrix(0.05,0,0,0.05,19,0)" xlink:href="#A"/><use transform="matrix(0.05,0,0,0.05,22.95,0)" xlink:href="#Z"/><use transform="matrix(0.05,0,0,0.05,32.95,0)" xlink:href="#A"/><use transform="matrix(0.05,0,0,0.05,36.900000000000006,0)" xlink:href="#E"/><use transform="matrix(0.05,0,0,0.05,42.85000000000001,0)" xlink:href="#aa"/><use transform="matrix(0.05,0,0,0.05,54.85,0)" xlink:href="#G"/><use transform="matrix(0.05,0,0,0.05,64.85000000000001,0)" xlink:href="#ab"/><use transform="matrix(0.05,0,0,0.05,74.85000000000001,0)" xlink:href="#A"/><use transform="matrix(0.05,0,0,0.05,78.80000000000001,0)" xlink:href="#B"/><use transform="matrix(0.05,0,0,0.05,88.80000000000001,0)" xlink:href="#G"/><use transform="matrix(0.05,0,0,0.05,98.80000000000001,0)" xlink:href="#ac"/><use transform="matrix(0.05,0,0,0.05,104.75,0)" xlink:href="#ad"/><use transform="matrix(0.05,0,0,0.05,116.75,0)" xlink:href="#C"/><use transform="matrix(0.05,0,0,0.05,121.75,0)" xlink:href="#E"/><use transform="matrix(0.05,0,0,0.05,127.7,0)" xlink:href="#A"/><use transform="matrix(0.05,0,0,0.05,131.65,0)" xlink:href="#B"/><use transform="matrix(0.05,0,0,0.05,141.65,0)" xlink:href="#ab"/></g><path fill="#333" d="M84 4C-5 8 30-112 23-190h32v120c0 31 7 50 39 49 72-2 45-101 50-169h31l1 190h-30c-1-10 1-25-2-33-11 22-28 36-60 37" id="ae"/><path fill="#333" d="M24 0v-261h32V0H24" id="af"/><path fill="#333" d="M33-261c38 41 65 92 65 168S71 34 33 75H2C39 34 66-17 66-93S39-220 2-261h31" id="ag"/><path fill="#333" d="M68-36c1 33-1 63-14 82H32c9-13 17-26 17-46H33v-36h35zM33-154v-36h35v36H33" id="ah"/><g id="f"><use transform="matrix(0.05,0,0,0.05,0,0)" xlink:href="#ae"/><use transform="matrix(0.05,0,0,0.05,10,0)" xlink:href="#E"/><use transform="matrix(0.05,0,0,0.05,15.949999999999998,0)" xlink:href="#af"/><use transform="matrix(0.05,0,0,0.05,19.9,0)" xlink:href="#ag"/><use transform="matrix(0.05,0,0,0.05,25.849999999999994,0)" xlink:href="#ah"/></g><path fill="#333" d="M190 0L58-211 59 0H30v-248h39L202-35l-2-213h31V0h-41" id="ai"/><path fill="#333" d="M205 0l-28-72H64L36 0H1l101-248h38L239 0h-34zm-38-99l-47-123c-12 45-31 82-46 123h93" id="aj"/><g id="g"><use transform="matrix(0.05,0,0,0.05,0,0)" xlink:href="#G"/><use transform="matrix(0.05,0,0,0.05,10,0)" xlink:href="#X"/><use transform="matrix(0.05,0,0,0.05,20,0)" xlink:href="#A"/><use transform="matrix(0.05,0,0,0.05,23.95,0)" xlink:href="#H"/><use transform="matrix(0.05,0,0,0.05,32.95,0)" xlink:href="#A"/><use transform="matrix(0.05,0,0,0.05,36.900000000000006,0)" xlink:href="#W"/><use transform="matrix(0.05,0,0,0.05,46.900000000000006,0)" xlink:href="#B"/><use transform="matrix(0.05,0,0,0.05,56.900000000000006,0)" xlink:href="#G"/><use transform="matrix(0.05,0,0,0.05,66.9,0)" xlink:href="#E"/><use transform="matrix(0.05,0,0,0.05,72.85000000000001,0)" xlink:href="#ai"/><use transform="matrix(0.05,0,0,0.05,85.80000000000001,0)" xlink:href="#W"/><use transform="matrix(0.05,0,0,0.05,95.80000000000001,0)" xlink:href="#V"/><use transform="matrix(0.05,0,0,0.05,104.80000000000001,0)" xlink:href="#G"/><use transform="matrix(0.05,0,0,0.05,114.80000000000001,0)" xlink:href="#aj"/><use transform="matrix(0.05,0,0,0.05,126.80000000000001,0)" xlink:href="#Z"/><use transform="matrix(0.05,0,0,0.05,136.8,0)" xlink:href="#G"/><use transform="matrix(0.05,0,0,0.05,146.8,0)" xlink:href="#ac"/><use transform="matrix(0.05,0,0,0.05,152.75,0)" xlink:href="#ag"/><use transform="matrix(0.05,0,0,0.05,158.7,0)" xlink:href="#ah"/></g><path fill="#333" d="M9 0v-24l116-142H16v-24h144v24L44-24h123V0H9" id="ak"/><g id="h"><use transform="matrix(0.05,0,0,0.05,0,0)" xlink:href="#G"/><use transform="matrix(0.05,0,0,0.05,10,0)" xlink:href="#C"/><use transform="matrix(0.05,0,0,0.05,15,0)" xlink:href="#ae"/><use transform="matrix(0.05,0,0,0.05,25,0)" xlink:href="#G"/><use transform="matrix(0.05,0,0,0.05,35,0)" xlink:href="#af"/><use transform="matrix(0.05,0,0,0.05,38.95,0)" xlink:href="#A"/><use transform="matrix(0.05,0,0,0.05,42.900000000000006,0)" xlink:href="#ak"/><use transform="matrix(0.05,0,0,0.05,51.900000000000006,0)" xlink:href="#G"/><use transform="matrix(0.05,0,0,0.05,61.900000000000006,0)" xlink:href="#E"/><use transform="matrix(0.05,0,0,0.05,67.85000000000001,0)" xlink:href="#aa"/><use transform="matrix(0.05,0,0,0.05,79.85000000000001,0)" xlink:href="#G"/><use transform="matrix(0.05,0,0,0.05,89.85000000000001,0)" xlink:href="#ab"/><use transform="matrix(0.05,0,0,0.05,99.85000000000001,0)" xlink:href="#A"/><use transform="matrix(0.05,0,0,0.05,103.80000000000001,0)" xlink:href="#B"/><use transform="matrix(0.05,0,0,0.05,113.80000000000001,0)" xlink:href="#G"/><use transform="matrix(0.05,0,0,0.05,123.80000000000001,0)" xlink:href="#ac"/><use transform="matrix(0.05,0,0,0.05,129.75,0)" xlink:href="#ag"/><use transform="matrix(0.05,0,0,0.05,135.7,0)" xlink:href="#ah"/></g><path fill="#333" d="M135-194c53 0 70 44 70 98 0 56-19 98-73 100-31 1-45-17-59-34 3 33 2 69 2 105H25l-1-265h48c2 10 0 23 3 31 11-24 29-35 60-35zM114-30c33 0 39-31 40-66 0-38-9-64-40-64-56 0-55 130 0 130" id="al"/><path fill="#333" d="M114-157C55-157 80-60 75 0H25v-261h50l-1 109c12-26 28-41 61-42 86-1 58 113 63 194h-50c-7-57 23-157-34-157" id="am"/><g id="i"><use transform="matrix(0.05,0,0,0.05,0,0)" xlink:href="#R"/><use transform="matrix(0.05,0,0,0.05,5,0)" xlink:href="#al"/><use transform="matrix(0.05,0,0,0.05,15.950000000000001,0)" xlink:href="#am"/><use transform="matrix(0.05,0,0,0.05,26.900000000000002,0)" xlink:href="#P"/><use transform="matrix(0.05,0,0,0.05,37.85,0)" xlink:href="#S"/><use transform="matrix(0.05,0,0,0.05,48.800000000000004,0)" xlink:href="#M"/></g><path fill="#333" d="M16-82v-28h88v28H16" id="an"/><use transform="matrix(0.05,0,0,0.05,0,0)" xlink:href="#an" id="j"/><g id="k"><use transform="matrix(0.05,0,0,0.05,0,0)" xlink:href="#ad"/><use transform="matrix(0.05,0,0,0.05,12,0)" xlink:href="#C"/><use transform="matrix(0.05,0,0,0.05,17,0)" xlink:href="#E"/><use transform="matrix(0.05,0,0,0.05,22.95,0)" xlink:href="#A"/><use transform="matrix(0.05,0,0,0.05,26.899999999999995,0)" xlink:href="#B"/><use transform="matrix(0.05,0,0,0.05,36.9,0)" xlink:href="#ab"/></g><path fill="#333" d="M210-169c-67 3-38 105-44 169h-31v-121c0-29-5-50-35-48C34-165 62-65 56 0H25l-1-190h30c1 10-1 24 2 32 10-44 99-50 107 0 11-21 27-35 58-36 85-2 47 119 55 194h-31v-121c0-29-5-49-35-48" id="ao"/><g id="l"><use transform="matrix(0.05,0,0,0.05,0,0)" xlink:href="#ao"/><use transform="matrix(0.05,0,0,0.05,14.950000000000001,0)" xlink:href="#W"/><use transform="matrix(0.05,0,0,0.05,24.950000000000003,0)" xlink:href="#X"/><use transform="matrix(0.05,0,0,0.05,34.95,0)" xlink:href="#D"/><use transform="matrix(0.05,0,0,0.05,44.95,0)" xlink:href="#af"/><use transform="matrix(0.05,0,0,0.05,48.900000000000006,0)" xlink:href="#W"/></g><path fill="#333" d="M135-143c-3-34-86-38-87 0 15 53 115 12 119 90S17 21 10-45l28-5c4 36 97 45 98 0-10-56-113-15-118-90-4-57 82-63 122-42 12 7 21 19 24 35" id="ap"/><path fill="#333" d="M140-251c81 0 123 46 123 126C263-46 219 4 140 4 59 4 17-45 17-125s42-126 123-126zm0 227c63 0 89-41 89-101s-29-99-89-99c-61 0-89 39-89 99S79-25 140-24" id="aq"/><path fill="#333" d="M115-194c55 1 70 41 70 98S169 2 115 4C84 4 66-9 55-30l1 105H24l-1-265h31l2 30c10-21 28-34 59-34zm-8 174c40 0 45-34 45-75s-6-73-45-74c-42 0-51 32-51 76 0 43 10 73 51 73" id="ar"/><g id="m"><use transform="matrix(0.05,0,0,0.05,0,0)" xlink:href="#ap"/><use transform="matrix(0.05,0,0,0.05,9,0)" xlink:href="#A"/><use transform="matrix(0.05,0,0,0.05,12.949999999999998,0)" xlink:href="#ap"/><use transform="matrix(0.05,0,0,0.05,21.95,0)" xlink:href="#C"/><use transform="matrix(0.05,0,0,0.05,26.950000000000003,0)" xlink:href="#D"/><use transform="matrix(0.05,0,0,0.05,36.95,0)" xlink:href="#ao"/><use transform="matrix(0.05,0,0,0.05,51.900000000000006,0)" xlink:href="#G"/><use transform="matrix(0.05,0,0,0.05,61.900000000000006,0)" xlink:href="#aq"/><use transform="matrix(0.05,0,0,0.05,75.9,0)" xlink:href="#ar"/><use transform="matrix(0.05,0,0,0.05,85.9,0)" xlink:href="#D"/><use transform="matrix(0.05,0,0,0.05,95.9,0)" xlink:href="#E"/><use transform="matrix(0.05,0,0,0.05,101.85000000000001,0)" xlink:href="#G"/><use transform="matrix(0.05,0,0,0.05,111.85000000000001,0)" xlink:href="#H"/><use transform="matrix(0.05,0,0,0.05,120.85000000000001,0)" xlink:href="#A"/><use transform="matrix(0.05,0,0,0.05,124.80000000000001,0)" xlink:href="#W"/><use transform="matrix(0.05,0,0,0.05,134.8,0)" xlink:href="#B"/><use transform="matrix(0.05,0,0,0.05,144.8,0)" xlink:href="#G"/><use transform="matrix(0.05,0,0,0.05,154.8,0)" xlink:href="#af"/></g><path fill="#333" d="M240-174c0 40-23 61-54 70L253 0h-59l-57-94H76V0H24v-248c93 4 217-23 216 74zM76-134c48-2 112 12 112-38 0-48-66-32-112-35v73" id="as"/><path fill="#333" d="M85 4C-2 5 27-109 22-190h50c7 57-23 150 33 157 60-5 35-97 40-157h50l1 190h-47c-2-12 1-28-3-38-12 25-28 42-61 42" id="at"/><path fill="#333" d="M230 0l2-204L168 0h-37L68-204 70 0H24v-248h70l56 185 57-185h69V0h-46" id="au"/><path fill="#333" d="M137-138c1-29-70-34-71-4 15 46 118 7 119 86 1 83-164 76-172 9l43-7c4 19 20 25 44 25 33 8 57-30 24-41C81-84 22-81 20-136c-2-80 154-74 161-7" id="av"/><path fill="#333" d="M25-224v-37h50v37H25zM25 0v-190h50V0H25" id="aw"/><path fill="#333" d="M190-63c-7 42-38 67-86 67-59 0-84-38-90-98-12-110 154-137 174-36l-49 2c-2-19-15-32-35-32-30 0-35 28-38 64-6 74 65 87 74 30" id="ax"/><path fill="#333" d="M25 0v-261h50V0H25" id="ay"/><g id="o"><use transform="matrix(0.05,0,0,0.05,0,0)" xlink:href="#as"/><use transform="matrix(0.05,0,0,0.05,12.950000000000001,0)" xlink:href="#M"/><use transform="matrix(0.05,0,0,0.05,22.950000000000003,0)" xlink:href="#al"/><use transform="matrix(0.05,0,0,0.05,33.900000000000006,0)" xlink:href="#Q"/><use transform="matrix(0.05,0,0,0.05,40.900000000000006,0)" xlink:href="#P"/><use transform="matrix(0.05,0,0,0.05,51.85,0)" xlink:href="#O"/><use transform="matrix(0.05,0,0,0.05,62.80000000000001,0)" xlink:href="#at"/><use transform="matrix(0.05,0,0,0.05,73.75000000000001,0)" xlink:href="#T"/><use transform="matrix(0.05,0,0,0.05,79.70000000000002,0)" xlink:href="#P"/><use transform="matrix(0.05,0,0,0.05,90.65000000000002,0)" xlink:href="#Q"/><use transform="matrix(0.05,0,0,0.05,97.65000000000002,0)" xlink:href="#au"/><use transform="matrix(0.05,0,0,0.05,112.60000000000002,0)" xlink:href="#at"/><use transform="matrix(0.05,0,0,0.05,123.55000000000003,0)" xlink:href="#av"/><use transform="matrix(0.05,0,0,0.05,133.55,0)" xlink:href="#aw"/><use transform="matrix(0.05,0,0,0.05,138.55,0)" xlink:href="#ax"/><use transform="matrix(0.05,0,0,0.05,148.55,0)" xlink:href="#K"/><use transform="matrix(0.05,0,0,0.05,158.55,0)" xlink:href="#ay"/></g><g id="p"><use transform="matrix(0.05,0,0,0.05,0,0)" xlink:href="#C"/><use transform="matrix(0.05,0,0,0.05,5,0)" xlink:href="#W"/><use transform="matrix(0.05,0,0,0.05,15,0)" xlink:href="#H"/><use transform="matrix(0.05,0,0,0.05,24,0)" xlink:href="#G"/><use transform="matrix(0.05,0,0,0.05,34,0)" xlink:href="#E"/><use transform="matrix(0.05,0,0,0.05,39.95,0)" xlink:href="#ac"/><use transform="matrix(0.05,0,0,0.05,45.900000000000006,0)" xlink:href="#ag"/><use transform="matrix(0.05,0,0,0.05,51.85,0)" xlink:href="#ah"/></g><g id="q"><use transform="matrix(0.05,0,0,0.05,0,0)" xlink:href="#ar"/><use transform="matrix(0.05,0,0,0.05,10,0)" xlink:href="#G"/><use transform="matrix(0.05,0,0,0.05,20,0)" xlink:href="#ae"/><use transform="matrix(0.05,0,0,0.05,30,0)" xlink:href="#ap"/><use transform="matrix(0.05,0,0,0.05,39,0)" xlink:href="#G"/><use transform="matrix(0.05,0,0,0.05,49,0)" xlink:href="#E"/><use transform="matrix(0.05,0,0,0.05,54.95,0)" xlink:href="#ac"/><use transform="matrix(0.05,0,0,0.05,60.900000000000006,0)" xlink:href="#ag"/><use transform="matrix(0.05,0,0,0.05,66.85000000000001,0)" xlink:href="#ah"/></g><path fill="#333" d="M240 0l2-218c-23 76-54 145-80 218h-23L58-218 59 0H30v-248h44l77 211c21-75 51-140 76-211h43V0h-30" id="az"/><g id="r"><use transform="matrix(0.05,0,0,0.05,0,0)" xlink:href="#ap"/><use transform="matrix(0.05,0,0,0.05,9,0)" xlink:href="#D"/><use transform="matrix(0.05,0,0,0.05,19,0)" xlink:href="#af"/><use transform="matrix(0.05,0,0,0.05,22.95,0)" xlink:href="#D"/><use transform="matrix(0.05,0,0,0.05,32.95,0)" xlink:href="#H"/><use transform="matrix(0.05,0,0,0.05,41.95,0)" xlink:href="#A"/><use transform="matrix(0.05,0,0,0.05,45.900000000000006,0)" xlink:href="#W"/><use transform="matrix(0.05,0,0,0.05,55.900000000000006,0)" xlink:href="#B"/><use transform="matrix(0.05,0,0,0.05,65.9,0)" xlink:href="#G"/><use transform="matrix(0.05,0,0,0.05,75.9,0)" xlink:href="#E"/><use transform="matrix(0.05,0,0,0.05,81.85000000000001,0)" xlink:href="#az"/><use transform="matrix(0.05,0,0,0.05,96.80000000000001,0)" xlink:href="#ae"/><use transform="matrix(0.05,0,0,0.05,106.80000000000001,0)" xlink:href="#ap"/><use transform="matrix(0.05,0,0,0.05,115.80000000000001,0)" xlink:href="#A"/><use transform="matrix(0.05,0,0,0.05,119.75,0)" xlink:href="#H"/><use transform="matrix(0.05,0,0,0.05,128.75,0)" xlink:href="#G"/><use transform="matrix(0.05,0,0,0.05,138.75,0)" xlink:href="#ac"/><use transform="matrix(0.05,0,0,0.05,144.7,0)" xlink:href="#ad"/><use transform="matrix(0.05,0,0,0.05,156.7,0)" xlink:href="#C"/><use transform="matrix(0.05,0,0,0.05,161.7,0)" xlink:href="#E"/><use transform="matrix(0.05,0,0,0.05,167.64999999999998,0)" xlink:href="#A"/><use transform="matrix(0.05,0,0,0.05,171.59999999999997,0)" xlink:href="#B"/><use transform="matrix(0.05,0,0,0.05,181.59999999999997,0)" xlink:href="#ab"/></g><g id="s"><use transform="matrix(0.05,0,0,0.05,0,0)" xlink:href="#ao"/><use transform="matrix(0.05,0,0,0.05,14.950000000000001,0)" xlink:href="#ae"/><use transform="matrix(0.05,0,0,0.05,24.950000000000003,0)" xlink:href="#ap"/><use transform="matrix(0.05,0,0,0.05,33.95,0)" xlink:href="#A"/><use transform="matrix(0.05,0,0,0.05,37.900000000000006,0)" xlink:href="#H"/><use transform="matrix(0.05,0,0,0.05,46.900000000000006,0)" xlink:href="#G"/><use transform="matrix(0.05,0,0,0.05,56.900000000000006,0)" xlink:href="#ag"/><use transform="matrix(0.05,0,0,0.05,62.85,0)" xlink:href="#ah"/></g><path fill="#333" d="M199 0l-22-63H83L61 0H9l90-248h61L250 0h-51zm-33-102l-36-108c-10 38-24 72-36 108h72" id="aA"/><path fill="#333" d="M136-208V0H84v-208H4v-40h212v40h-80" id="aB"/><path fill="#333" d="M121-226c-27-7-43 5-38 36h38v33H83V0H34v-157H6v-33h28c-9-59 32-81 87-68v32" id="aC"/><path fill="#333" d="M110-194c64 0 96 36 96 99 0 64-35 99-97 99-61 0-95-36-95-99 0-62 34-99 96-99zm-1 164c35 0 45-28 45-65 0-40-10-65-43-65-34 0-45 26-45 65 0 36 10 65 43 65zm66-183v5h-28c-13-11-23-24-37-34l-37 34H45c9-26 32-39 45-61h41" id="aD"/><g id="t"><use transform="matrix(0.05,0,0,0.05,0,0)" xlink:href="#aA"/><use transform="matrix(0.05,0,0,0.05,12.950000000000001,0)" xlink:href="#al"/><use transform="matrix(0.05,0,0,0.05,23.900000000000002,0)" xlink:href="#K"/><use transform="matrix(0.05,0,0,0.05,33.900000000000006,0)" xlink:href="#Q"/><use transform="matrix(0.05,0,0,0.05,40.900000000000006,0)" xlink:href="#M"/><use transform="matrix(0.05,0,0,0.05,50.900000000000006,0)" xlink:href="#ay"/><use transform="matrix(0.05,0,0,0.05,55.900000000000006,0)" xlink:href="#am"/><use transform="matrix(0.05,0,0,0.05,66.85000000000001,0)" xlink:href="#P"/><use transform="matrix(0.05,0,0,0.05,77.80000000000001,0)" xlink:href="#aB"/><use transform="matrix(0.05,0,0,0.05,87.40000000000002,0)" xlink:href="#M"/><use transform="matrix(0.05,0,0,0.05,97.40000000000002,0)" xlink:href="#ay"/><use transform="matrix(0.05,0,0,0.05,102.40000000000003,0)" xlink:href="#M"/><use transform="matrix(0.05,0,0,0.05,112.40000000000003,0)" xlink:href="#aC"/><use transform="matrix(0.05,0,0,0.05,118.35000000000002,0)" xlink:href="#aD"/><use transform="matrix(0.05,0,0,0.05,129.3,0)" xlink:href="#S"/><use transform="matrix(0.05,0,0,0.05,140.25,0)" xlink:href="#aw"/><use transform="matrix(0.05,0,0,0.05,145.25,0)" xlink:href="#ax"/><use transform="matrix(0.05,0,0,0.05,155.25,0)" xlink:href="#P"/></g><g id="u"><use transform="matrix(0.05,0,0,0.05,0,0)" xlink:href="#af"/><use transform="matrix(0.05,0,0,0.05,3.95,0)" xlink:href="#A"/><use transform="matrix(0.05,0,0,0.05,7.9,0)" xlink:href="#ab"/><use transform="matrix(0.05,0,0,0.05,17.9,0)" xlink:href="#G"/><use transform="matrix(0.05,0,0,0.05,27.899999999999995,0)" xlink:href="#E"/><use transform="matrix(0.05,0,0,0.05,33.85,0)" xlink:href="#ac"/><use transform="matrix(0.05,0,0,0.05,39.800000000000004,0)" xlink:href="#ad"/><use transform="matrix(0.05,0,0,0.05,51.800000000000004,0)" xlink:href="#C"/><use transform="matrix(0.05,0,0,0.05,56.800000000000004,0)" xlink:href="#E"/><use transform="matrix(0.05,0,0,0.05,62.75,0)" xlink:href="#A"/><use transform="matrix(0.05,0,0,0.05,66.7,0)" xlink:href="#B"/><use transform="matrix(0.05,0,0,0.05,76.7,0)" xlink:href="#ab"/></g><g id="v"><use transform="matrix(0.05,0,0,0.05,0,0)" xlink:href="#B"/><use transform="matrix(0.05,0,0,0.05,10,0)" xlink:href="#ae"/><use transform="matrix(0.05,0,0,0.05,20,0)" xlink:href="#ao"/><use transform="matrix(0.05,0,0,0.05,34.95,0)" xlink:href="#D"/><use transform="matrix(0.05,0,0,0.05,44.95,0)" xlink:href="#E"/><use transform="matrix(0.05,0,0,0.05,50.900000000000006,0)" xlink:href="#W"/><use transform="matrix(0.05,0,0,0.05,60.900000000000006,0)" xlink:href="#ag"/><use transform="matrix(0.05,0,0,0.05,66.85000000000001,0)" xlink:href="#ah"/></g><g id="w"><use transform="matrix(0.05,0,0,0.05,0,0)" xlink:href="#G"/><use transform="matrix(0.05,0,0,0.05,10,0)" xlink:href="#C"/><use transform="matrix(0.05,0,0,0.05,15,0)" xlink:href="#D"/><use transform="matrix(0.05,0,0,0.05,25,0)" xlink:href="#B"/><use transform="matrix(0.05,0,0,0.05,35,0)" xlink:href="#X"/><use transform="matrix(0.05,0,0,0.05,45,0)" xlink:href="#D"/><use transform="matrix(0.05,0,0,0.05,55,0)" xlink:href="#E"/><use transform="matrix(0.05,0,0,0.05,60.95,0)" xlink:href="#ac"/><use transform="matrix(0.05,0,0,0.05,66.9,0)" xlink:href="#ag"/><use transform="matrix(0.05,0,0,0.05,72.85000000000001,0)" xlink:href="#ah"/></g><path fill="#333" d="M212-179c-10-28-35-45-73-45-59 0-87 40-87 99 0 60 29 101 89 101 43 0 62-24 78-52l27 14C228-24 195 4 139 4 59 4 22-46 18-125c-6-104 99-153 187-111 19 9 31 26 39 46" id="aE"/><path fill="#333" d="M137 0h-34L2-248h35l83 218 83-218h36" id="aF"/><g id="x"><use transform="matrix(0.05,0,0,0.05,0,0)" xlink:href="#A"/><use transform="matrix(0.05,0,0,0.05,3.95,0)" xlink:href="#B"/><use transform="matrix(0.05,0,0,0.05,13.949999999999998,0)" xlink:href="#A"/><use transform="matrix(0.05,0,0,0.05,17.9,0)" xlink:href="#H"/><use transform="matrix(0.05,0,0,0.05,26.899999999999995,0)" xlink:href="#A"/><use transform="matrix(0.05,0,0,0.05,30.849999999999994,0)" xlink:href="#G"/><use transform="matrix(0.05,0,0,0.05,40.849999999999994,0)" xlink:href="#E"/><use transform="matrix(0.05,0,0,0.05,46.8,0)" xlink:href="#aE"/><use transform="matrix(0.05,0,0,0.05,59.75,0)" xlink:href="#W"/><use transform="matrix(0.05,0,0,0.05,69.75,0)" xlink:href="#E"/><use transform="matrix(0.05,0,0,0.05,75.7,0)" xlink:href="#E"/><use transform="matrix(0.05,0,0,0.05,81.65,0)" xlink:href="#D"/><use transform="matrix(0.05,0,0,0.05,91.65,0)" xlink:href="#A"/><use transform="matrix(0.05,0,0,0.05,95.60000000000001,0)" xlink:href="#W"/><use transform="matrix(0.05,0,0,0.05,105.60000000000001,0)" xlink:href="#aF"/><use transform="matrix(0.05,0,0,0.05,116.60000000000001,0)" xlink:href="#W"/><use transform="matrix(0.05,0,0,0.05,126.60000000000001,0)" xlink:href="#ak"/><use transform="matrix(0.05,0,0,0.05,135.60000000000002,0)" xlink:href="#ac"/><use transform="matrix(0.05,0,0,0.05,141.55,0)" xlink:href="#ag"/><use transform="matrix(0.05,0,0,0.05,147.5,0)" xlink:href="#ah"/></g><path fill="#282c33" d="M33 0v-248h34V0H33" id="aG"/><path fill="#282c33" d="M210-169c-67 3-38 105-44 169h-31v-121c0-29-5-50-35-48C34-165 62-65 56 0H25l-1-190h30c1 10-1 24 2 32 10-44 99-50 107 0 11-21 27-35 58-36 85-2 47 119 55 194h-31v-121c0-29-5-49-35-48" id="aH"/><path fill="#282c33" d="M115-194c55 1 70 41 70 98S169 2 115 4C84 4 66-9 55-30l1 105H24l-1-265h31l2 30c10-21 28-34 59-34zm-8 174c40 0 45-34 45-75s-6-73-45-74c-42 0-51 32-51 76 0 43 10 73 51 73" id="aI"/><path fill="#282c33" d="M24 0v-261h32V0H24" id="aJ"/><path fill="#282c33" d="M100-194c63 0 86 42 84 106H49c0 40 14 67 53 68 26 1 43-12 49-29l28 8c-11 28-37 45-77 45C44 4 14-33 15-96c1-61 26-98 85-98zm52 81c6-60-76-77-97-28-3 7-6 17-6 28h103" id="aK"/><path fill="#282c33" d="M117-194c89-4 53 116 60 194h-32v-121c0-31-8-49-39-48C34-167 62-67 57 0H25l-1-190h30c1 10-1 24 2 32 11-22 29-35 61-36" id="aL"/><path fill="#282c33" d="M59-47c-2 24 18 29 38 22v24C64 9 27 4 27-40v-127H5v-23h24l9-43h21v43h35v23H59v120" id="aM"/><path fill="#282c33" d="M141-36C126-15 110 5 73 4 37 3 15-17 15-53c-1-64 63-63 125-63 3-35-9-54-41-54-24 1-41 7-42 31l-33-3c5-37 33-52 76-52 45 0 72 20 72 64v82c-1 20 7 32 28 27v20c-31 9-61-2-59-35zM48-53c0 20 12 33 32 33 41-3 63-29 60-74-43 2-92-5-92 41" id="aN"/><g id="y"><use transform="matrix(0.06172839506172839,0,0,0.06172839506172839,0,0)" xlink:href="#aG"/><use transform="matrix(0.06172839506172839,0,0,0.06172839506172839,6.172839506172839,0)" xlink:href="#aH"/><use transform="matrix(0.06172839506172839,0,0,0.06172839506172839,24.629629629629626,0)" xlink:href="#aI"/><use transform="matrix(0.06172839506172839,0,0,0.06172839506172839,36.9753086419753,0)" xlink:href="#aJ"/><use transform="matrix(0.06172839506172839,0,0,0.06172839506172839,41.85185185185185,0)" xlink:href="#aK"/><use transform="matrix(0.06172839506172839,0,0,0.06172839506172839,54.197530864197525,0)" xlink:href="#aH"/><use transform="matrix(0.06172839506172839,0,0,0.06172839506172839,72.65432098765432,0)" xlink:href="#aK"/><use transform="matrix(0.06172839506172839,0,0,0.06172839506172839,85,0)" xlink:href="#aL"/><use transform="matrix(0.06172839506172839,0,0,0.06172839506172839,97.34567901234568,0)" xlink:href="#aM"/><use transform="matrix(0.06172839506172839,0,0,0.06172839506172839,103.51851851851852,0)" xlink:href="#aN"/></g></defs></g></svg>